<svg id="Layer_1" data-name="Layer 1" xmlns="http://www.w3.org/2000/svg" viewBox="0 0 141.6 43"><defs><style>.cls-1{fill:#fff;}.cls-2{fill:#68c7c6;}</style></defs><title>logo-white</title><path class="cls-1" d="M680.7,389.6l1,.4a.6.6,0,0,1,.3,1.1l-.6.7a11.7,11.7,0,0,1-8.5,3.5,11.5,11.5,0,0,1-8.4-3.5,11.3,11.3,0,0,1-3.5-8.5,12,12,0,0,1,11.9-11.9,11.3,11.3,0,0,1,8.5,3.5l.3.3a1.1,1.1,0,0,1-.4,1.7h0a1.1,1.1,0,0,1-1.1-.3l-.3-.3a10,10,0,0,0-13.9,0,9.8,9.8,0,0,0-2.9,7,9.3,9.3,0,0,0,2.9,7,8.9,8.9,0,0,0,5.8,2.8,9.8,9.8,0,0,0,8.4-3.1l.4-.4Z" transform="translate(-613.5 -364)"/><path class="cls-1" d="M695,371.4a11.3,11.3,0,0,1,8.5,3.5,11.5,11.5,0,0,1,3.5,8.4,12,12,0,0,1-12,12,11.5,11.5,0,0,1-8.4-3.5,11.7,11.7,0,0,1-3.5-8.5,11.5,11.5,0,0,1,3.5-8.4A11.1,11.1,0,0,1,695,371.4Zm-6.9,5a9.8,9.8,0,0,0,0,13.9,9.8,9.8,0,0,0,13.9,0,9.8,9.8,0,1,0-13.9-13.9Z" transform="translate(-613.5 -364)"/><path class="cls-1" d="M710.9,366.3a1.9,1.9,0,0,1,0,2.8,1.9,1.9,0,0,1-1.4.5,1.9,1.9,0,0,1-1.3-.5,1.8,1.8,0,0,1-.6-1.4,2,2,0,0,1,.6-1.4,1.6,1.6,0,0,1,1.3-.6A1.8,1.8,0,0,1,710.9,366.3Zm-.4,8v19.4a1,1,0,0,1-1,1h0a1,1,0,0,1-.9-1V374.3a1,1,0,0,1,.9-1h0A1,1,0,0,1,710.5,374.3Z" transform="translate(-613.5 -364)"/><path class="cls-1" d="M714.5,378.1v15.6a1.1,1.1,0,0,1-1,1h0a1.1,1.1,0,0,1-1-1V373.3h2v1.4a8.8,8.8,0,0,1,12.4-.3,9,9,0,0,1,2.4,6v13.3a1,1,0,0,1-1,1h0a1.1,1.1,0,0,1-1-1V380.6a6.3,6.3,0,0,0-1.9-4.7,6.6,6.6,0,0,0-4.7-1.9,6.4,6.4,0,0,0-4.7,1.9A6.2,6.2,0,0,0,714.5,378.1Z" transform="translate(-613.5 -364)"/><path class="cls-1" d="M733.9,366.3a1.8,1.8,0,0,1,.6,1.4,2,2,0,0,1-.6,1.4,1.9,1.9,0,0,1-1.3.5,2.2,2.2,0,0,1-1.4-.5,2,2,0,0,1-.6-1.4,2.1,2.1,0,0,1,2-2A1.6,1.6,0,0,1,733.9,366.3Zm-.4,8v19.4a1,1,0,0,1-.9,1h0a1,1,0,0,1-1-1V374.3a1,1,0,0,1,1-1h0A1,1,0,0,1,733.5,374.3Z" transform="translate(-613.5 -364)"/><path class="cls-1" d="M736.1,395.4l-.5-.2a1,1,0,0,1-.3-1.4l5.7-9.3a2.1,2.1,0,0,1,1.9-1.1,2.3,2.3,0,0,1,2,1.1l5.6,9.2a1,1,0,0,1-.3,1.4,1,1,0,0,1-1.4-.4l-5.6-9.1h-.5l-5.7,9.3A1.1,1.1,0,0,1,736.1,395.4Z" transform="translate(-613.5 -364)"/><path class="cls-1" d="M743.2,382.4h0a2.1,2.1,0,0,1-1.9-1.1l-2.9-4.6a1,1,0,0,1,.4-1.4,1,1,0,0,1,1.4.3l2.8,4.6.2.2h0l.3-.2,3.8-6.2,6-8.9a1,1,0,0,1,1.7,1.1l-6,9-3.8,6.1A2.3,2.3,0,0,1,743.2,382.4Z" transform="translate(-613.5 -364)"/><circle class="cls-2" cx="81.5" cy="19.4" r="7.9"/><path class="cls-1" d="M644.5,373.7a1.5,1.5,0,0,1-2,.5,14.3,14.3,0,1,0-15.2,24.3,13.8,13.8,0,0,0,2.7,1.4l2.1.5.7.4-1.5,2.4a13.1,13.1,0,0,1-2.8-.9,10.5,10.5,0,0,1-2.8-1.4,17.2,17.2,0,1,1,18.4-29.1A1.4,1.4,0,0,1,644.5,373.7Z" transform="translate(-613.5 -364)"/><path class="cls-1" d="M646.9,370.1a1.4,1.4,0,0,1-1.9.5,18.7,18.7,0,1,0-19.9,31.6,15.9,15.9,0,0,0,2.9,1.5l2.1.7.6.3-1.1,1.8c-.1.3-.3.4-.6.6l-1.9-.7a23.1,23.1,0,0,1-3.5-1.8,21.5,21.5,0,0,1,22.9-36.5A1.4,1.4,0,0,1,646.9,370.1Z" transform="translate(-613.5 -364)"/><path class="cls-1" d="M647.8,406.8a1.5,1.5,0,0,1-2-.5l-7.9-12.8c-.1-.2-.2-.2-.3-.2s-.2,0-.3.2l-4.5,7.3-1.5,2.4a13.1,13.1,0,0,1-2.8-.9l1.5-2.4,4.8-7.9a3.2,3.2,0,0,1,5.6,0l7.8,12.8A1.5,1.5,0,0,1,647.8,406.8Z" transform="translate(-613.5 -364)"/><path class="cls-1" d="M638,389h0a3.3,3.3,0,0,1-2.7-1.5l-4-6.5a1.4,1.4,0,0,1,.4-2,1.5,1.5,0,0,1,2,.5l4,6.5.3.2h0l.3-.2,5.4-8.7,8.4-12.6a1.4,1.4,0,0,1,2-.4,1.4,1.4,0,0,1,.4,2l-8.4,12.5-5.3,8.7A3.5,3.5,0,0,1,638,389Z" transform="translate(-613.5 -364)"/><path class="cls-2" d="M634.4,388l-4-6.5a2.9,2.9,0,0,1-.3-1.8,3.1,3.1,0,0,1,1.1-1.6,2.3,2.3,0,0,1,1.8-.2,2.1,2.1,0,0,1,1.5,1l3.4,5.6,5.3-8.4a13.5,13.5,0,0,0-8.3-2.9,13.2,13.2,0,0,0-5.6,25.1l5.9-9.4Z" transform="translate(-613.5 -364)"/><path class="cls-1" d="M650.6,404.6a1.4,1.4,0,0,1-1.2-.7L642.7,393a5,5,0,0,1,0-5.5l4.5-7.4a1.5,1.5,0,0,1,2.5,1.5l-4.6,7.4a2.3,2.3,0,0,0,0,2.5l6.7,10.9a1.5,1.5,0,0,1-.5,2Z" transform="translate(-613.5 -364)"/><path class="cls-1" d="M752.8,393.5a.9.9,0,0,1-.9-.5l-5-8.1a3.8,3.8,0,0,1,0-4.1l3.4-5.5a1,1,0,0,1,1.4-.4,1.1,1.1,0,0,1,.4,1.5l-3.4,5.5a1.7,1.7,0,0,0,0,1.9l5,8.1a1.1,1.1,0,0,1-.4,1.5Z" transform="translate(-613.5 -364)"/><path class="cls-1" d="M662.2,402.7h0a2.3,2.3,0,0,1,2.2-2.6,2.6,2.6,0,0,1,1.6.6l-.5.7a1.6,1.6,0,0,0-1.1-.5c-.8,0-1.4.7-1.4,1.8h0c0,1.1.6,1.8,1.4,1.8a1.4,1.4,0,0,0,1.1-.5l.5.5a2.2,2.2,0,0,1-1.7.7A2.2,2.2,0,0,1,662.2,402.7Z" transform="translate(-613.5 -364)"/><path class="cls-1" d="M667.8,401.4h.8v.7a1.3,1.3,0,0,1,1.1-.8v.9h0c-.7,0-1.1.4-1.1,1.3v1.7h-.8Z" transform="translate(-613.5 -364)"/><path class="cls-1" d="M673.8,401.4h.8l-1.3,3.8c-.2.8-.5,1.1-1.1,1.1l-.8-.2.3-.7.4.2c.2,0,.3-.1.5-.4l-1.4-3.8h.9l.8,2.7Z" transform="translate(-613.5 -364)"/><path class="cls-1" d="M676.4,401.4h.8v.6a1.1,1.1,0,0,1,1.1-.7c.7,0,1.4.7,1.4,1.9h0c0,1.3-.7,1.9-1.4,1.9a1.2,1.2,0,0,1-1.1-.6v1.6h-.8Zm2.5,1.9h0c0-.8-.4-1.3-.8-1.3s-.9.5-.9,1.3h0c0,.8.4,1.2.9,1.2S678.9,404.1,678.9,403.3Z" transform="translate(-613.5 -364)"/><path class="cls-1" d="M681.8,404.3v-2.2h-.4v-.7h.4v-1h.8v1h.9v.7h-.9v2a.4.4,0,0,0,.4.4h.5v.7h-.7C682.2,405.2,681.8,405,681.8,404.3Z" transform="translate(-613.5 -364)"/><path class="cls-1" d="M685.1,403.3h0a1.8,1.8,0,1,1,3.5,0h0a1.8,1.8,0,0,1-1.8,1.9A1.7,1.7,0,0,1,685.1,403.3Zm2.7,0h0c0-.7-.4-1.3-1-1.3s-.9.6-.9,1.3h0c0,.7.4,1.2.9,1.2S687.8,404,687.8,403.3Z" transform="translate(-613.5 -364)"/><path class="cls-1" d="M690.3,403.3h0a1.8,1.8,0,0,1,1.7-2,1.7,1.7,0,0,1,1.2.5l-.4.6a1.1,1.1,0,0,0-.8-.3c-.5,0-.9.5-.9,1.2h0c0,.7.4,1.2.9,1.2a.8.8,0,0,0,.8-.4l.4.6a1.7,1.7,0,0,1-1.2.5A1.7,1.7,0,0,1,690.3,403.3Z" transform="translate(-613.5 -364)"/><path class="cls-1" d="M695,403.9v-2.5h.8v2.3c0,.5.2.8.7.8a.7.7,0,0,0,.7-.8v-2.3h.8v3.8h-.8v-.6a1,1,0,0,1-1,.6C695.4,405.2,695,404.7,695,403.9Z" transform="translate(-613.5 -364)"/><path class="cls-1" d="M700.1,401.4h.8v.7a1.2,1.2,0,0,1,1.1-.8v.9h0c-.7,0-1.1.4-1.1,1.3v1.7h-.8Z" transform="translate(-613.5 -364)"/><path class="cls-1" d="M703.8,401.4h.8v.7a1.2,1.2,0,0,1,1.1-.8v.9h0c-.7,0-1.1.4-1.1,1.3v1.7h-.8Z" transform="translate(-613.5 -364)"/><path class="cls-1" d="M707.2,403.3h0c0-1.2.7-2,1.6-2s1.6.9,1.6,2v.3H708a1.1,1.1,0,0,0,1,1,1.2,1.2,0,0,0,.8-.4l.4.5a1.8,1.8,0,0,1-3-1.4Zm2.4-.3c-.1-.6-.3-1-.8-1s-.7.4-.8,1Z" transform="translate(-613.5 -364)"/><path class="cls-1" d="M712.3,401.4h.8v.6a1.1,1.1,0,0,1,1-.7c.7,0,1.1.5,1.1,1.3v2.6h-.8v-2.3c0-.6-.2-.8-.6-.8s-.7.3-.7.8v2.3h-.8Z" transform="translate(-613.5 -364)"/><path class="cls-1" d="M717.1,403.3h0a1.8,1.8,0,0,1,1.7-2,1.5,1.5,0,0,1,1.2.5l-.4.6a1,1,0,0,0-.8-.3c-.5,0-.9.5-.9,1.2h0c0,.7.4,1.2,1,1.2a.8.8,0,0,0,.7-.4l.5.6a1.7,1.7,0,0,1-1.3.5A1.7,1.7,0,0,1,717.1,403.3Z" transform="translate(-613.5 -364)"/><path class="cls-1" d="M724.1,401.4h.8l-1.3,3.8c-.2.8-.6,1.1-1.1,1.1l-.8-.2.3-.7a.5.5,0,0,0,.4.2c.2,0,.3-.1.5-.4l-1.4-3.8h.9l.8,2.7Z" transform="translate(-613.5 -364)"/><path class="cls-1" d="M729.7,400.2h1.6a1.6,1.6,0,0,1,1.8,1.7h0c0,1.1-.8,1.6-1.8,1.7h-.7v1.6h-.9Zm1.6,2.6a.9.9,0,0,0,1-.9h0a.9.9,0,0,0-1-1h-.7v1.9Z" transform="translate(-613.5 -364)"/><path class="cls-1" d="M735,401.4h.8v.7a1.2,1.2,0,0,1,1.1-.8v.9h0c-.7,0-1.1.4-1.1,1.3v1.7H735Z" transform="translate(-613.5 -364)"/><path class="cls-1" d="M738.7,400.1h.8v.8h-.8Zm0,1.3h.8v3.8h-.8Z" transform="translate(-613.5 -364)"/><path class="cls-1" d="M741.5,403.3h0a1.8,1.8,0,0,1,1.7-2,1.7,1.7,0,0,1,1.2.5l-.5.6a.9.9,0,0,0-.7-.3c-.5,0-.9.5-.9,1.2h0c0,.7.4,1.2.9,1.2a.9.9,0,0,0,.8-.4l.4.6a1.7,1.7,0,0,1-1.2.5A1.7,1.7,0,0,1,741.5,403.3Z" transform="translate(-613.5 -364)"/><path class="cls-1" d="M745.9,403.3h0a1.8,1.8,0,0,1,1.7-2c1,0,1.5.9,1.5,2v.3h-2.3a.9.9,0,0,0,.9,1,1.5,1.5,0,0,0,.9-.4l.4.5a1.9,1.9,0,0,1-1.3.5A1.8,1.8,0,0,1,745.9,403.3Zm2.4-.3c0-.6-.3-1-.7-1s-.8.4-.9,1Z" transform="translate(-613.5 -364)"/><path class="cls-1" d="M750.7,404.7l.4-.6a1.6,1.6,0,0,0,1,.5.5.5,0,0,0,.5-.4h0c0-.3-.3-.4-.7-.6s-1-.5-1-1.1h0a1.1,1.1,0,0,1,1.2-1.1,1.8,1.8,0,0,1,1.2.5l-.3.5a1.6,1.6,0,0,0-.9-.3.5.5,0,0,0-.5.4h0c0,.2.3.4.8.6s1,.5,1,1.1h0a1.2,1.2,0,0,1-1.3,1.1A1.9,1.9,0,0,1,750.7,404.7Z" transform="translate(-613.5 -364)"/></svg>